<?xml version="1.0" encoding="UTF-8" standalone="no"?>
<svg width="23" height="23" xmlns="http://www.w3.org/2000/svg">
 <title/>
 <desc/>
 <g>
  <title>Layer 1</title>
  <g fill="none" fill-rule="evenodd" id="Page-1">
   <g fill="#ffffff" id="Core">
    <g id="content-paste">
     <path d="m18.6,2.3l-4.2,0c-0.40001,-1.2 -1.5,-2 -2.8,-2c-1.3,0 -2.39999,0.8 -2.8,2l-4.2,0c-1.10001,0 -2,0.9 -2,2l0,16c0,1.1 0.89999,2 2,2l14,0c1.10001,0 2,-0.9 2,-2l0,-16c0,-1.1 -0.89999,-2 -2,-2l0,0zm-7,0c0.60001,0 1,0.4 1,1c0,0.6 -0.39999,1 -1,1c-0.60001,0 -1,-0.4 -1,-1c0,-0.6 0.39999,-1 1,-1l0,0zm7,18l-14,0l0,-16l2,0l0,3l10,0l0,-3l2,0l0,16l0,0z" id="Shape"/>
    </g>
   </g>
  </g>
  <line id="svg_6" y2="10.59375" x2="16.50123" y1="10.59375" x1="6.59375" stroke-linecap="null" stroke-linejoin="null" stroke-width="2" stroke="#fffcfc" fill="none"/>
  <line id="svg_7" y2="14.125" x2="16.50123" y1="14.125" x1="6.59375" stroke-linecap="null" stroke-linejoin="null" stroke-width="2" stroke="#fffcfc" fill="none"/>
  <line id="svg_8" y2="17.4375" x2="16.50123" y1="17.4375" x1="6.59375" stroke-linecap="null" stroke-linejoin="null" stroke-width="2" stroke="#fffcfc" fill="none"/>
 </g>
</svg>
